<svg xmlns="http://www.w3.org/2000/svg" version="1.1" xmlns:xlink="http://www.w3.org/1999/xlink" xmlns:svgjs="http://svgjs.dev/svgjs" width="1000" height="1000" viewBox="0 0 1000 1000"><rect width="1000" height="1000" fill="#000000"></rect><g transform="matrix(0.7,0,0,0.7,150,281.25)"><svg viewBox="0 0 512 320" data-background-color="#ffffff" preserveAspectRatio="xMidYMid meet" height="625" width="1000" xmlns="http://www.w3.org/2000/svg" xmlns:xlink="http://www.w3.org/1999/xlink"><g id="tight-bounds" transform="matrix(1,0,0,1,0,0)"><svg viewBox="0 0 512 320" height="320" width="512"><g><svg></svg></g><g><svg viewBox="0 0 512 320" height="320" width="512"><g><path xmlns="http://www.w3.org/2000/svg" d="M96 160c0-88.366 71.634-160 160-160 88.366 0 160 71.634 160 160 0 88.366-71.634 160-160 160-88.366 0-160-71.634-160-160z" fill="#ffffff" fill-rule="nonzero" stroke="none" stroke-width="1" stroke-linecap="butt" stroke-linejoin="miter" stroke-miterlimit="10" stroke-dasharray="" stroke-dashoffset="0" font-family="none" font-weight="none" font-size="none" text-anchor="none" style="mix-blend-mode: normal" data-fill-palette-color="tertiary"></path></g><g transform="matrix(1,0,0,1,153.6,96.8317299578059)"><svg viewBox="0 0 204.8 126.33654008438819" height="126.33654008438819" width="204.8"><g><svg viewBox="0 0 204.8 126.33654008438819" height="126.33654008438819" width="204.8"><g><svg viewBox="0 0 204.8 126.33654008438819" height="126.33654008438819" width="204.8"><g><svg viewBox="0 0 204.8 126.33654008438819" height="126.33654008438819" width="204.8"><g id="textblocktransform"><svg viewBox="0 0 204.8 126.33654008438819" height="126.33654008438819" width="204.8" id="textblock"><g><svg viewBox="0 0 204.8 126.33654008438819" height="126.33654008438819" width="204.8"><g transform="matrix(1,0,0,1,0,0)"><svg width="204.8" viewBox="2.700000047683716 -36.54999923706055 59.25 36.54999923706055" height="126.33654008438819" data-palette-color="#fff3da"><path d="M6.6 0L6.6 0Q5.15 0 3.93-0.6 2.7-1.2 2.7-2.4L2.7-2.4 2.7-32.65Q2.7-34.8 3.93-35.68 5.15-36.55 6.6-36.55L6.6-36.55Q8-36.55 8.97-36.33 9.95-36.1 10.8-35.27 11.65-34.45 12.65-32.65L12.65-32.65 17.8-23.65 22.95-32.65Q24-34.45 24.83-35.27 25.65-36.1 26.63-36.33 27.6-36.55 29-36.55L29-36.55Q30.5-36.55 31.7-35.68 32.9-34.8 32.9-32.65L32.9-32.65 32.9-2.4Q32.9-1.2 31.68-0.6 30.45 0 29 0L29 0Q27.55 0 26.33-0.6 25.1-1.2 25.1-2.4L25.1-2.4 25.1-21.15 20.3-12.95Q19.8-12.15 19.1-11.83 18.4-11.5 17.7-11.5L17.7-11.5Q17.05-11.5 16.38-11.8 15.7-12.1 15.25-12.95L15.25-12.95 10.5-21.65 10.5-2.4Q10.5-1.2 9.28-0.6 8.05 0 6.6 0ZM59.6 0L38.3 0Q37.1 0 36.57-0.58 36.05-1.15 36.05-2.05L36.05-2.05Q36.05-3.35 36.9-4.8L36.9-4.8 51-29.75 39.4-29.75Q38.3-29.75 37.67-30.78 37.05-31.8 37.05-33.15L37.05-33.15Q37.05-34.4 37.6-35.48 38.15-36.55 39.4-36.55L39.4-36.55 58.7-36.55Q59.85-36.55 60.4-35.98 60.95-35.4 60.95-34.5L60.95-34.5Q60.95-33.3 60.1-31.75L60.1-31.75 46-6.8 59.6-6.8Q60.75-6.8 61.35-5.7 61.95-4.6 61.95-3.4L61.95-3.4Q61.95-2.2 61.35-1.1 60.75 0 59.6 0L59.6 0Z" opacity="1" transform="matrix(1,0,0,1,0,0)" fill="#000000" class="wordmark-text-0" data-fill-palette-color="quaternary" id="text-0"></path></svg></g></svg></g></svg></g></svg></g><g></g></svg></g></svg></g></svg></g></svg></g><defs></defs></svg><rect width="512" height="320" fill="none" stroke="none" visibility="hidden"></rect></g></svg></g></svg>